<svg xmlns="http://www.w3.org/2000/svg" width="1880" height="990" viewBox="0 0 1880 990">
<rect width="1880" height="990" fill="#dce5f7"/>
<circle cx="38" cy="38" r="30" fill="none" stroke="#49a6aa" stroke-width="6" opacity=".9"/>
<text x="70" y="70" font-family="'Noto Sans CJK JP','Hiragino Sans','Yu Gothic','Noto Sans','Arial',sans-serif" font-size="42" font-weight="900" fill="#111" text-anchor="start">2026 World Cup two-stage simulation</text>
<text x="70" y="108" font-family="'Noto Sans CJK JP','Hiragino Sans','Yu Gothic','Noto Sans','Arial',sans-serif" font-size="24" font-weight="800" fill="#526077" text-anchor="start">Knockout bracket from R16</text>
<text x="70" y="138" font-family="'Noto Sans CJK JP','Hiragino Sans','Yu Gothic','Noto Sans','Arial',sans-serif" font-size="17" font-weight="700" fill="#526077" text-anchor="start">Scenario: C01 / Annex C: 37</text>
<text x="70" y="166" font-family="'Noto Sans CJK JP','Hiragino Sans','Yu Gothic','Noto Sans','Arial',sans-serif" font-size="14" font-weight="700" fill="#526077" text-anchor="start">Match-box percentages are matchup-conditional win probabilities; the champion-box percentage is the scenario-conditional champion probability for the displayed winner.</text>
<path d="M 325 284.0 H 340.0 V 344.0 H 355" fill="none" stroke="#111" stroke-width="4" stroke-linecap="square"/>
<path d="M 325 404.0 H 340.0 V 344.0 H 355" fill="none" stroke="#111" stroke-width="4" stroke-linecap="square"/>
<path d="M 325 714.0 H 340.0 V 774.0 H 355" fill="none" stroke="#111" stroke-width="4" stroke-linecap="square"/>
<path d="M 325 834.0 H 340.0 V 774.0 H 355" fill="none" stroke="#111" stroke-width="4" stroke-linecap="square"/>
<path d="M 635 344.0 H 627.5 V 559.0 H 620" fill="none" stroke="#111" stroke-width="4" stroke-linecap="square"/>
<path d="M 635 774.0 H 627.5 V 559.0 H 620" fill="none" stroke="#111" stroke-width="4" stroke-linecap="square"/>
<path d="M 1555 284.0 H 1540.0 V 344.0 H 1525" fill="none" stroke="#111" stroke-width="4" stroke-linecap="square"/>
<path d="M 1555 404.0 H 1540.0 V 344.0 H 1525" fill="none" stroke="#111" stroke-width="4" stroke-linecap="square"/>
<path d="M 1555 714.0 H 1540.0 V 774.0 H 1525" fill="none" stroke="#111" stroke-width="4" stroke-linecap="square"/>
<path d="M 1555 834.0 H 1540.0 V 774.0 H 1525" fill="none" stroke="#111" stroke-width="4" stroke-linecap="square"/>
<path d="M 1245 344.0 H 1252.5 V 559.0 H 1260" fill="none" stroke="#111" stroke-width="4" stroke-linecap="square"/>
<path d="M 1245 774.0 H 1252.5 V 559.0 H 1260" fill="none" stroke="#111" stroke-width="4" stroke-linecap="square"/>
<path d="M 900 559.0 H 840.0 V 299.0 H 780.0" fill="none" stroke="#111" stroke-width="4" stroke-linecap="square"/>
<path d="M 980 559.0 H 1040.0 V 299.0 H 1100.0" fill="none" stroke="#111" stroke-width="4" stroke-linecap="square"/>
<path d="M 760.0 603 V 654.0 H 892.0 V 705" fill="none" stroke="#7a6424" stroke-width="3.2" stroke-dasharray="9 8" stroke-linecap="round" opacity=".88"/>
<path d="M 1120.0 603 V 654.0 H 988.0 V 705" fill="none" stroke="#7a6424" stroke-width="3.2" stroke-dasharray="9 8" stroke-linecap="round" opacity=".88"/>
<path d="M 940.0 250 V 218" fill="none" stroke="#111" stroke-width="4"/>
<rect x="45" y="198" width="280" height="30" rx="15" fill="#f6f8ff" stroke="#111" stroke-width="3"/><text x="185.0" y="219" font-family="'Noto Sans CJK JP','Hiragino Sans','Yu Gothic','Noto Sans','Arial',sans-serif" font-size="15" font-weight="900" fill="#111" text-anchor="middle">R16</text>
<rect x="355" y="258" width="280" height="30" rx="15" fill="#f6f8ff" stroke="#111" stroke-width="3"/><text x="495.0" y="279" font-family="'Noto Sans CJK JP','Hiragino Sans','Yu Gothic','Noto Sans','Arial',sans-serif" font-size="15" font-weight="900" fill="#111" text-anchor="middle">Quarterfinal</text>
<rect x="620" y="473" width="280" height="30" rx="15" fill="#f6f8ff" stroke="#111" stroke-width="3"/><text x="760.0" y="494" font-family="'Noto Sans CJK JP','Hiragino Sans','Yu Gothic','Noto Sans','Arial',sans-serif" font-size="15" font-weight="900" fill="#111" text-anchor="middle">Semifinal</text>
<rect x="980" y="473" width="280" height="30" rx="15" fill="#f6f8ff" stroke="#111" stroke-width="3"/><text x="1120.0" y="494" font-family="'Noto Sans CJK JP','Hiragino Sans','Yu Gothic','Noto Sans','Arial',sans-serif" font-size="15" font-weight="900" fill="#111" text-anchor="middle">Semifinal</text>
<rect x="1245" y="258" width="280" height="30" rx="15" fill="#f6f8ff" stroke="#111" stroke-width="3"/><text x="1385.0" y="279" font-family="'Noto Sans CJK JP','Hiragino Sans','Yu Gothic','Noto Sans','Arial',sans-serif" font-size="15" font-weight="900" fill="#111" text-anchor="middle">Quarterfinal</text>
<rect x="1555" y="198" width="280" height="30" rx="15" fill="#f6f8ff" stroke="#111" stroke-width="3"/><text x="1695.0" y="219" font-family="'Noto Sans CJK JP','Hiragino Sans','Yu Gothic','Noto Sans','Arial',sans-serif" font-size="15" font-weight="900" fill="#111" text-anchor="middle">R16</text>
<rect x="780.0" y="210" width="320" height="30" rx="15" fill="#f6f8ff" stroke="#111" stroke-width="3"/><text x="940.0" y="231" font-family="'Noto Sans CJK JP','Hiragino Sans','Yu Gothic','Noto Sans','Arial',sans-serif" font-size="15" font-weight="900" fill="#111" text-anchor="middle">Final</text>
<rect x="780.0" y="665" width="320" height="30" rx="15" fill="#f6f8ff" stroke="#111" stroke-width="3"/><text x="940.0" y="686" font-family="'Noto Sans CJK JP','Hiragino Sans','Yu Gothic','Noto Sans','Arial',sans-serif" font-size="15" font-weight="900" fill="#111" text-anchor="middle">Third-place match</text>
<rect x="45" y="240" width="280" height="88" fill="#eef3ff" stroke="#111" stroke-width="4"/>
<line x1="45" y1="284.0" x2="325" y2="284.0" stroke="#111" stroke-width="3"/>
<rect x="48" y="243.0" width="274" height="38.0" fill="#f5f7fc" stroke="none"/>
<rect x="59" y="252.0" width="36" height="24" fill="#fff" stroke="#111" stroke-width="0.8"/><rect x="59" y="252.0" width="36" height="8.3" fill="#ffdd00" stroke="none" stroke-width="0"/><rect x="59" y="260.0" width="36" height="8.3" fill="#034ea2" stroke="none" stroke-width="0"/><rect x="59" y="268.0" width="36" height="8.3" fill="#ed1c24" stroke="none" stroke-width="0"/><circle cx="77.0" cy="264.0" r="1.6800000000000002" fill="#8c6b25" stroke="none" stroke-width="0"/><rect x="59" y="252.0" width="36" height="24" fill="none" stroke="#111" stroke-width="0.8"/>
<text x="105" y="270.0" font-family="'Noto Sans CJK JP','Hiragino Sans','Yu Gothic','Noto Sans','Arial',sans-serif" font-size="19" font-weight="760" fill="#111111" text-anchor="start">Ecuador</text>
<rect x="48" y="287.0" width="274" height="38.0" fill="#c9f5db" stroke="none"/>
<rect x="59" y="296.0" width="36" height="24" fill="#fff" stroke="#111" stroke-width="0.8"/><rect x="59.0" y="296.0" width="12.3" height="24" fill="#002395" stroke="none" stroke-width="0"/><rect x="71.0" y="296.0" width="12.3" height="24" fill="#ffffff" stroke="none" stroke-width="0"/><rect x="83.0" y="296.0" width="12.3" height="24" fill="#ed2939" stroke="none" stroke-width="0"/><rect x="59" y="296.0" width="36" height="24" fill="none" stroke="#111" stroke-width="0.8"/>
<text x="105" y="314.0" font-family="'Noto Sans CJK JP','Hiragino Sans','Yu Gothic','Noto Sans','Arial',sans-serif" font-size="19" font-weight="900" fill="#102818" text-anchor="start">France</text>
<text x="311" y="314.0" font-family="'Noto Sans CJK JP','Hiragino Sans','Yu Gothic','Noto Sans','Arial',sans-serif" font-size="14" font-weight="900" fill="#102818" text-anchor="end">52.5%</text>
<rect x="45" y="360" width="280" height="88" fill="#eef3ff" stroke="#111" stroke-width="4"/>
<line x1="45" y1="404.0" x2="325" y2="404.0" stroke="#111" stroke-width="3"/>
<rect x="48" y="363.0" width="274" height="38.0" fill="#f5f7fc" stroke="none"/>
<rect x="59" y="372.0" width="36" height="24" fill="#fff" stroke="#111" stroke-width="0.8"/><rect x="59" y="372.0" width="36" height="24" fill="#d52b1e" stroke="none" stroke-width="0"/><rect x="74.12" y="377.28" width="5.76" height="13.440000000000001" fill="#ffffff" stroke="none" stroke-width="0"/><rect x="68.0" y="381.6" width="18.0" height="4.32" fill="#ffffff" stroke="none" stroke-width="0"/><rect x="59" y="372.0" width="36" height="24" fill="none" stroke="#111" stroke-width="0.8"/>
<text x="105" y="390.0" font-family="'Noto Sans CJK JP','Hiragino Sans','Yu Gothic','Noto Sans','Arial',sans-serif" font-size="19" font-weight="760" fill="#111111" text-anchor="start">Switzerland</text>
<rect x="48" y="407.0" width="274" height="38.0" fill="#c9f5db" stroke="none"/>
<rect x="59" y="416.0" width="36" height="24" fill="#fff" stroke="#111" stroke-width="0.8"/><rect x="59" y="416.0" width="36" height="24" fill="#ffffff" stroke="none" stroke-width="0"/><circle cx="77.0" cy="428.0" r="6.720000000000001" fill="#bc002d" stroke="none" stroke-width="0"/><rect x="59" y="416.0" width="36" height="24" fill="none" stroke="#111" stroke-width="0.8"/>
<text x="105" y="434.0" font-family="'Noto Sans CJK JP','Hiragino Sans','Yu Gothic','Noto Sans','Arial',sans-serif" font-size="19" font-weight="900" fill="#102818" text-anchor="start">Japan</text>
<text x="311" y="434.0" font-family="'Noto Sans CJK JP','Hiragino Sans','Yu Gothic','Noto Sans','Arial',sans-serif" font-size="14" font-weight="900" fill="#102818" text-anchor="end">53.9%</text>
<rect x="45" y="670" width="280" height="88" fill="#eef3ff" stroke="#111" stroke-width="4"/>
<line x1="45" y1="714.0" x2="325" y2="714.0" stroke="#111" stroke-width="3"/>
<rect x="48" y="673.0" width="274" height="38.0" fill="#f5f7fc" stroke="none"/>
<rect x="59" y="682.0" width="36" height="24" fill="#fff" stroke="#111" stroke-width="0.8"/><rect x="59.0" y="682.0" width="18.3" height="24" fill="#006600" stroke="none" stroke-width="0"/><rect x="77.0" y="682.0" width="18.3" height="24" fill="#ff0000" stroke="none" stroke-width="0"/><circle cx="74.12" cy="694.0" r="3.12" fill="#ffcc00" stroke="none" stroke-width="0"/><rect x="59" y="682.0" width="36" height="24" fill="none" stroke="#111" stroke-width="0.8"/>
<text x="105" y="700.0" font-family="'Noto Sans CJK JP','Hiragino Sans','Yu Gothic','Noto Sans','Arial',sans-serif" font-size="19" font-weight="760" fill="#111111" text-anchor="start">Portugal</text>
<rect x="48" y="717.0" width="274" height="38.0" fill="#c9f5db" stroke="none"/>
<rect x="59" y="726.0" width="36" height="24" fill="#fff" stroke="#111" stroke-width="0.8"/><rect x="59" y="726.0" width="36" height="8.3" fill="#aa151b" stroke="none" stroke-width="0"/><rect x="59" y="734.0" width="36" height="8.3" fill="#f1bf00" stroke="none" stroke-width="0"/><rect x="59" y="742.0" width="36" height="8.3" fill="#aa151b" stroke="none" stroke-width="0"/><rect x="59" y="726.0" width="36" height="24" fill="none" stroke="#111" stroke-width="0.8"/>
<text x="105" y="744.0" font-family="'Noto Sans CJK JP','Hiragino Sans','Yu Gothic','Noto Sans','Arial',sans-serif" font-size="19" font-weight="900" fill="#102818" text-anchor="start">Spain</text>
<text x="311" y="744.0" font-family="'Noto Sans CJK JP','Hiragino Sans','Yu Gothic','Noto Sans','Arial',sans-serif" font-size="14" font-weight="900" fill="#102818" text-anchor="end">61.1%</text>
<rect x="45" y="790" width="280" height="88" fill="#eef3ff" stroke="#111" stroke-width="4"/>
<line x1="45" y1="834.0" x2="325" y2="834.0" stroke="#111" stroke-width="3"/>
<rect x="48" y="793.0" width="274" height="38.0" fill="#f5f7fc" stroke="none"/>
<rect x="59" y="802.0" width="36" height="24" fill="#fff" stroke="#111" stroke-width="0.8"/><rect x="59" y="802.0" width="36" height="24" fill="#e30a17" stroke="none" stroke-width="0"/><circle cx="73.4" cy="814.0" r="5.28" fill="#ffffff" stroke="none" stroke-width="0"/><circle cx="75.92" cy="814.0" r="4.32" fill="#e30a17" stroke="none" stroke-width="0"/><text x="81.32" y="818.08" font-family="'Noto Sans CJK JP','Hiragino Sans','Yu Gothic','Noto Sans','Arial',sans-serif" font-size="7.199999999999999" font-weight="900" fill="#ffffff" text-anchor="middle">★</text><rect x="59" y="802.0" width="36" height="24" fill="none" stroke="#111" stroke-width="0.8"/>
<text x="105" y="820.0" font-family="'Noto Sans CJK JP','Hiragino Sans','Yu Gothic','Noto Sans','Arial',sans-serif" font-size="19" font-weight="760" fill="#111111" text-anchor="start">Turkey</text>
<rect x="48" y="837.0" width="274" height="38.0" fill="#c9f5db" stroke="none"/>
<rect x="59" y="846.0" width="36" height="24" fill="#fff" stroke="#111" stroke-width="0.8"/><rect x="59" y="846.0" width="36" height="24" fill="#ba0c2f" stroke="none" stroke-width="0"/><rect x="68.72" y="846.0" width="7.92" height="24" fill="#ffffff" stroke="none" stroke-width="0"/><rect x="59" y="855.12" width="36" height="5.76" fill="#ffffff" stroke="none" stroke-width="0"/><rect x="70.52" y="846.0" width="3.96" height="24" fill="#00205b" stroke="none" stroke-width="0"/><rect x="59" y="856.56" width="36" height="2.88" fill="#00205b" stroke="none" stroke-width="0"/><rect x="59" y="846.0" width="36" height="24" fill="none" stroke="#111" stroke-width="0.8"/>
<text x="105" y="864.0" font-family="'Noto Sans CJK JP','Hiragino Sans','Yu Gothic','Noto Sans','Arial',sans-serif" font-size="19" font-weight="900" fill="#102818" text-anchor="start">Norway</text>
<text x="311" y="864.0" font-family="'Noto Sans CJK JP','Hiragino Sans','Yu Gothic','Noto Sans','Arial',sans-serif" font-size="14" font-weight="900" fill="#102818" text-anchor="end">51.5%</text>
<rect x="355" y="300" width="280" height="88" fill="#eef3ff" stroke="#111" stroke-width="4"/>
<line x1="355" y1="344.0" x2="635" y2="344.0" stroke="#111" stroke-width="3"/>
<rect x="358" y="303.0" width="274" height="38.0" fill="#c9f5db" stroke="none"/>
<rect x="369" y="312.0" width="36" height="24" fill="#fff" stroke="#111" stroke-width="0.8"/><rect x="369.0" y="312.0" width="12.3" height="24" fill="#002395" stroke="none" stroke-width="0"/><rect x="381.0" y="312.0" width="12.3" height="24" fill="#ffffff" stroke="none" stroke-width="0"/><rect x="393.0" y="312.0" width="12.3" height="24" fill="#ed2939" stroke="none" stroke-width="0"/><rect x="369" y="312.0" width="36" height="24" fill="none" stroke="#111" stroke-width="0.8"/>
<text x="415" y="330.0" font-family="'Noto Sans CJK JP','Hiragino Sans','Yu Gothic','Noto Sans','Arial',sans-serif" font-size="19" font-weight="900" fill="#102818" text-anchor="start">France</text>
<text x="621" y="330.0" font-family="'Noto Sans CJK JP','Hiragino Sans','Yu Gothic','Noto Sans','Arial',sans-serif" font-size="14" font-weight="900" fill="#102818" text-anchor="end">55.8%</text>
<rect x="358" y="347.0" width="274" height="38.0" fill="#f5f7fc" stroke="none"/>
<rect x="369" y="356.0" width="36" height="24" fill="#fff" stroke="#111" stroke-width="0.8"/><rect x="369" y="356.0" width="36" height="24" fill="#ffffff" stroke="none" stroke-width="0"/><circle cx="387.0" cy="368.0" r="6.720000000000001" fill="#bc002d" stroke="none" stroke-width="0"/><rect x="369" y="356.0" width="36" height="24" fill="none" stroke="#111" stroke-width="0.8"/>
<text x="415" y="374.0" font-family="'Noto Sans CJK JP','Hiragino Sans','Yu Gothic','Noto Sans','Arial',sans-serif" font-size="19" font-weight="760" fill="#111111" text-anchor="start">Japan</text>
<rect x="355" y="730" width="280" height="88" fill="#eef3ff" stroke="#111" stroke-width="4"/>
<line x1="355" y1="774.0" x2="635" y2="774.0" stroke="#111" stroke-width="3"/>
<rect x="358" y="733.0" width="274" height="38.0" fill="#c9f5db" stroke="none"/>
<rect x="369" y="742.0" width="36" height="24" fill="#fff" stroke="#111" stroke-width="0.8"/><rect x="369" y="742.0" width="36" height="8.3" fill="#aa151b" stroke="none" stroke-width="0"/><rect x="369" y="750.0" width="36" height="8.3" fill="#f1bf00" stroke="none" stroke-width="0"/><rect x="369" y="758.0" width="36" height="8.3" fill="#aa151b" stroke="none" stroke-width="0"/><rect x="369" y="742.0" width="36" height="24" fill="none" stroke="#111" stroke-width="0.8"/>
<text x="415" y="760.0" font-family="'Noto Sans CJK JP','Hiragino Sans','Yu Gothic','Noto Sans','Arial',sans-serif" font-size="19" font-weight="900" fill="#102818" text-anchor="start">Spain</text>
<text x="621" y="760.0" font-family="'Noto Sans CJK JP','Hiragino Sans','Yu Gothic','Noto Sans','Arial',sans-serif" font-size="14" font-weight="900" fill="#102818" text-anchor="end">64.1%</text>
<rect x="358" y="777.0" width="274" height="38.0" fill="#f5f7fc" stroke="none"/>
<rect x="369" y="786.0" width="36" height="24" fill="#fff" stroke="#111" stroke-width="0.8"/><rect x="369" y="786.0" width="36" height="24" fill="#ba0c2f" stroke="none" stroke-width="0"/><rect x="378.72" y="786.0" width="7.92" height="24" fill="#ffffff" stroke="none" stroke-width="0"/><rect x="369" y="795.12" width="36" height="5.76" fill="#ffffff" stroke="none" stroke-width="0"/><rect x="380.52" y="786.0" width="3.96" height="24" fill="#00205b" stroke="none" stroke-width="0"/><rect x="369" y="796.56" width="36" height="2.88" fill="#00205b" stroke="none" stroke-width="0"/><rect x="369" y="786.0" width="36" height="24" fill="none" stroke="#111" stroke-width="0.8"/>
<text x="415" y="804.0" font-family="'Noto Sans CJK JP','Hiragino Sans','Yu Gothic','Noto Sans','Arial',sans-serif" font-size="19" font-weight="760" fill="#111111" text-anchor="start">Norway</text>
<rect x="620" y="515" width="280" height="88" fill="#eef3ff" stroke="#111" stroke-width="4"/>
<line x1="620" y1="559.0" x2="900" y2="559.0" stroke="#111" stroke-width="3"/>
<rect x="623" y="518.0" width="274" height="38.0" fill="#f5f7fc" stroke="none"/>
<rect x="634" y="527.0" width="36" height="24" fill="#fff" stroke="#111" stroke-width="0.8"/><rect x="634.0" y="527.0" width="12.3" height="24" fill="#002395" stroke="none" stroke-width="0"/><rect x="646.0" y="527.0" width="12.3" height="24" fill="#ffffff" stroke="none" stroke-width="0"/><rect x="658.0" y="527.0" width="12.3" height="24" fill="#ed2939" stroke="none" stroke-width="0"/><rect x="634" y="527.0" width="36" height="24" fill="none" stroke="#111" stroke-width="0.8"/>
<text x="680" y="545.0" font-family="'Noto Sans CJK JP','Hiragino Sans','Yu Gothic','Noto Sans','Arial',sans-serif" font-size="19" font-weight="760" fill="#111111" text-anchor="start">France</text>
<rect x="623" y="562.0" width="274" height="38.0" fill="#c9f5db" stroke="none"/>
<rect x="634" y="571.0" width="36" height="24" fill="#fff" stroke="#111" stroke-width="0.8"/><rect x="634" y="571.0" width="36" height="8.3" fill="#aa151b" stroke="none" stroke-width="0"/><rect x="634" y="579.0" width="36" height="8.3" fill="#f1bf00" stroke="none" stroke-width="0"/><rect x="634" y="587.0" width="36" height="8.3" fill="#aa151b" stroke="none" stroke-width="0"/><rect x="634" y="571.0" width="36" height="24" fill="none" stroke="#111" stroke-width="0.8"/>
<text x="680" y="589.0" font-family="'Noto Sans CJK JP','Hiragino Sans','Yu Gothic','Noto Sans','Arial',sans-serif" font-size="19" font-weight="900" fill="#102818" text-anchor="start">Spain</text>
<text x="886" y="589.0" font-family="'Noto Sans CJK JP','Hiragino Sans','Yu Gothic','Noto Sans','Arial',sans-serif" font-size="14" font-weight="900" fill="#102818" text-anchor="end">56.1%</text>
<rect x="1555" y="240" width="280" height="88" fill="#eef3ff" stroke="#111" stroke-width="4"/>
<line x1="1555" y1="284.0" x2="1835" y2="284.0" stroke="#111" stroke-width="3"/>
<rect x="1558" y="243.0" width="274" height="38.0" fill="#c9f5db" stroke="none"/>
<rect x="1569" y="252.0" width="36" height="24" fill="#fff" stroke="#111" stroke-width="0.8"/><rect x="1569" y="252.0" width="36" height="24" fill="#009b3a" stroke="none" stroke-width="0"/><polygon points="1587.0,255.0 1601,264.0 1587.0,273.0 1573,264.0" fill="#ffdf00" stroke="none" stroke-width="0"/><circle cx="1587.0" cy="264.0" r="5.5200000000000005" fill="#002776" stroke="none" stroke-width="0"/><rect x="1569" y="252.0" width="36" height="24" fill="none" stroke="#111" stroke-width="0.8"/>
<text x="1615" y="270.0" font-family="'Noto Sans CJK JP','Hiragino Sans','Yu Gothic','Noto Sans','Arial',sans-serif" font-size="19" font-weight="900" fill="#102818" text-anchor="start">Brazil</text>
<text x="1821" y="270.0" font-family="'Noto Sans CJK JP','Hiragino Sans','Yu Gothic','Noto Sans','Arial',sans-serif" font-size="14" font-weight="900" fill="#102818" text-anchor="end">57.1%</text>
<rect x="1558" y="287.0" width="274" height="38.0" fill="#f5f7fc" stroke="none"/>
<rect x="1569" y="296.0" width="36" height="24" fill="#fff" stroke="#111" stroke-width="0.8"/><rect x="1569.0" y="296.0" width="12.3" height="24" fill="#00853f" stroke="none" stroke-width="0"/><rect x="1581.0" y="296.0" width="12.3" height="24" fill="#fdef42" stroke="none" stroke-width="0"/><rect x="1593.0" y="296.0" width="12.3" height="24" fill="#e31b23" stroke="none" stroke-width="0"/><text x="1587.0" y="312.08" font-family="'Noto Sans CJK JP','Hiragino Sans','Yu Gothic','Noto Sans','Arial',sans-serif" font-size="7.199999999999999" font-weight="900" fill="#00853f" text-anchor="middle">★</text><rect x="1569" y="296.0" width="36" height="24" fill="none" stroke="#111" stroke-width="0.8"/>
<text x="1615" y="314.0" font-family="'Noto Sans CJK JP','Hiragino Sans','Yu Gothic','Noto Sans','Arial',sans-serif" font-size="19" font-weight="760" fill="#111111" text-anchor="start">Senegal</text>
<rect x="1555" y="360" width="280" height="88" fill="#eef3ff" stroke="#111" stroke-width="4"/>
<line x1="1555" y1="404.0" x2="1835" y2="404.0" stroke="#111" stroke-width="3"/>
<rect x="1558" y="363.0" width="274" height="38.0" fill="#c9f5db" stroke="none"/>
<rect x="1569" y="372.0" width="36" height="24" fill="#fff" stroke="#111" stroke-width="0.8"/><rect x="1569.0" y="372.0" width="12.3" height="24" fill="#006847" stroke="none" stroke-width="0"/><rect x="1581.0" y="372.0" width="12.3" height="24" fill="#ffffff" stroke="none" stroke-width="0"/><rect x="1593.0" y="372.0" width="12.3" height="24" fill="#ce1126" stroke="none" stroke-width="0"/><circle cx="1587.0" cy="384.0" r="1.92" fill="#8c6b25" stroke="none" stroke-width="0"/><rect x="1569" y="372.0" width="36" height="24" fill="none" stroke="#111" stroke-width="0.8"/>
<text x="1615" y="390.0" font-family="'Noto Sans CJK JP','Hiragino Sans','Yu Gothic','Noto Sans','Arial',sans-serif" font-size="19" font-weight="900" fill="#102818" text-anchor="start">Mexico</text>
<text x="1821" y="390.0" font-family="'Noto Sans CJK JP','Hiragino Sans','Yu Gothic','Noto Sans','Arial',sans-serif" font-size="14" font-weight="900" fill="#102818" text-anchor="end">54.3%</text>
<rect x="1558" y="407.0" width="274" height="38.0" fill="#f5f7fc" stroke="none"/>
<rect x="1569" y="416.0" width="36" height="24" fill="#fff" stroke="#111" stroke-width="0.8"/><rect x="1569" y="416.0" width="36" height="24" fill="#ffffff" stroke="none" stroke-width="0"/><rect x="1584.48" y="416.0" width="5.040000000000001" height="24" fill="#cf142b" stroke="none" stroke-width="0"/><rect x="1569" y="426.08" width="36" height="3.84" fill="#cf142b" stroke="none" stroke-width="0"/><rect x="1569" y="416.0" width="36" height="24" fill="none" stroke="#111" stroke-width="0.8"/>
<text x="1615" y="434.0" font-family="'Noto Sans CJK JP','Hiragino Sans','Yu Gothic','Noto Sans','Arial',sans-serif" font-size="19" font-weight="760" fill="#111111" text-anchor="start">England</text>
<rect x="1555" y="670" width="280" height="88" fill="#eef3ff" stroke="#111" stroke-width="4"/>
<line x1="1555" y1="714.0" x2="1835" y2="714.0" stroke="#111" stroke-width="3"/>
<rect x="1558" y="673.0" width="274" height="38.0" fill="#c9f5db" stroke="none"/>
<rect x="1569" y="682.0" width="36" height="24" fill="#fff" stroke="#111" stroke-width="0.8"/><rect x="1569" y="682.0" width="36" height="8.3" fill="#75aadb" stroke="none" stroke-width="0"/><rect x="1569" y="690.0" width="36" height="8.3" fill="#ffffff" stroke="none" stroke-width="0"/><rect x="1569" y="698.0" width="36" height="8.3" fill="#75aadb" stroke="none" stroke-width="0"/><circle cx="1587.0" cy="694.0" r="2.4000000000000004" fill="#f6b40e" stroke="none" stroke-width="0"/><rect x="1569" y="682.0" width="36" height="24" fill="none" stroke="#111" stroke-width="0.8"/>
<text x="1615" y="700.0" font-family="'Noto Sans CJK JP','Hiragino Sans','Yu Gothic','Noto Sans','Arial',sans-serif" font-size="19" font-weight="900" fill="#102818" text-anchor="start">Argentina</text>
<text x="1821" y="700.0" font-family="'Noto Sans CJK JP','Hiragino Sans','Yu Gothic','Noto Sans','Arial',sans-serif" font-size="14" font-weight="900" fill="#102818" text-anchor="end">63.6%</text>
<rect x="1558" y="717.0" width="274" height="38.0" fill="#f5f7fc" stroke="none"/>
<rect x="1569" y="726.0" width="36" height="24" fill="#fff" stroke="#111" stroke-width="0.8"/><rect x="1569" y="726.0" width="36" height="3.6285714285714286" fill="#b22234" stroke="none" stroke-width="0"/><rect x="1569" y="729.4285714285714" width="36" height="3.6285714285714286" fill="#ffffff" stroke="none" stroke-width="0"/><rect x="1569" y="732.8571428571429" width="36" height="3.6285714285714286" fill="#b22234" stroke="none" stroke-width="0"/><rect x="1569" y="736.2857142857143" width="36" height="3.6285714285714286" fill="#ffffff" stroke="none" stroke-width="0"/><rect x="1569" y="739.7142857142857" width="36" height="3.6285714285714286" fill="#b22234" stroke="none" stroke-width="0"/><rect x="1569" y="743.1428571428571" width="36" height="3.6285714285714286" fill="#ffffff" stroke="none" stroke-width="0"/><rect x="1569" y="746.5714285714286" width="36" height="3.6285714285714286" fill="#b22234" stroke="none" stroke-width="0"/><rect x="1569" y="726.0" width="15.12" height="13.714285714285714" fill="#3c3b6e" stroke="none" stroke-width="0"/><rect x="1569" y="726.0" width="36" height="24" fill="none" stroke="#111" stroke-width="0.8"/>
<text x="1615" y="744.0" font-family="'Noto Sans CJK JP','Hiragino Sans','Yu Gothic','Noto Sans','Arial',sans-serif" font-size="19" font-weight="760" fill="#111111" text-anchor="start">United States</text>
<rect x="1555" y="790" width="280" height="88" fill="#eef3ff" stroke="#111" stroke-width="4"/>
<line x1="1555" y1="834.0" x2="1835" y2="834.0" stroke="#111" stroke-width="3"/>
<rect x="1558" y="793.0" width="274" height="38.0" fill="#f5f7fc" stroke="none"/>
<rect x="1569" y="802.0" width="36" height="24" fill="#fff" stroke="#111" stroke-width="0.8"/><rect x="1569.0" y="802.0" width="12.3" height="24" fill="#d52b1e" stroke="none" stroke-width="0"/><rect x="1581.0" y="802.0" width="12.3" height="24" fill="#ffffff" stroke="none" stroke-width="0"/><rect x="1593.0" y="802.0" width="12.3" height="24" fill="#d52b1e" stroke="none" stroke-width="0"/><text x="1587.0" y="818.32" font-family="'Noto Sans CJK JP','Hiragino Sans','Yu Gothic','Noto Sans','Arial',sans-serif" font-size="13.200000000000001" font-weight="900" fill="#d52b1e" text-anchor="middle">✦</text><rect x="1569" y="802.0" width="36" height="24" fill="none" stroke="#111" stroke-width="0.8"/>
<text x="1615" y="820.0" font-family="'Noto Sans CJK JP','Hiragino Sans','Yu Gothic','Noto Sans','Arial',sans-serif" font-size="19" font-weight="760" fill="#111111" text-anchor="start">Canada</text>
<rect x="1558" y="837.0" width="274" height="38.0" fill="#c9f5db" stroke="none"/>
<rect x="1569" y="846.0" width="36" height="24" fill="#fff" stroke="#111" stroke-width="0.8"/><rect x="1569" y="846.0" width="36" height="8.3" fill="#fcd116" stroke="none" stroke-width="0"/><rect x="1569" y="854.0" width="36" height="8.3" fill="#003893" stroke="none" stroke-width="0"/><rect x="1569" y="862.0" width="36" height="8.3" fill="#ce1126" stroke="none" stroke-width="0"/><rect x="1569" y="846.0" width="36" height="24" fill="none" stroke="#111" stroke-width="0.8"/>
<text x="1615" y="864.0" font-family="'Noto Sans CJK JP','Hiragino Sans','Yu Gothic','Noto Sans','Arial',sans-serif" font-size="19" font-weight="900" fill="#102818" text-anchor="start">Colombia</text>
<text x="1821" y="864.0" font-family="'Noto Sans CJK JP','Hiragino Sans','Yu Gothic','Noto Sans','Arial',sans-serif" font-size="14" font-weight="900" fill="#102818" text-anchor="end">66.4%</text>
<rect x="1245" y="300" width="280" height="88" fill="#eef3ff" stroke="#111" stroke-width="4"/>
<line x1="1245" y1="344.0" x2="1525" y2="344.0" stroke="#111" stroke-width="3"/>
<rect x="1248" y="303.0" width="274" height="38.0" fill="#c9f5db" stroke="none"/>
<rect x="1259" y="312.0" width="36" height="24" fill="#fff" stroke="#111" stroke-width="0.8"/><rect x="1259" y="312.0" width="36" height="24" fill="#009b3a" stroke="none" stroke-width="0"/><polygon points="1277.0,315.0 1291,324.0 1277.0,333.0 1263,324.0" fill="#ffdf00" stroke="none" stroke-width="0"/><circle cx="1277.0" cy="324.0" r="5.5200000000000005" fill="#002776" stroke="none" stroke-width="0"/><rect x="1259" y="312.0" width="36" height="24" fill="none" stroke="#111" stroke-width="0.8"/>
<text x="1305" y="330.0" font-family="'Noto Sans CJK JP','Hiragino Sans','Yu Gothic','Noto Sans','Arial',sans-serif" font-size="19" font-weight="900" fill="#102818" text-anchor="start">Brazil</text>
<text x="1511" y="330.0" font-family="'Noto Sans CJK JP','Hiragino Sans','Yu Gothic','Noto Sans','Arial',sans-serif" font-size="14" font-weight="900" fill="#102818" text-anchor="end">58.7%</text>
<rect x="1248" y="347.0" width="274" height="38.0" fill="#f5f7fc" stroke="none"/>
<rect x="1259" y="356.0" width="36" height="24" fill="#fff" stroke="#111" stroke-width="0.8"/><rect x="1259.0" y="356.0" width="12.3" height="24" fill="#006847" stroke="none" stroke-width="0"/><rect x="1271.0" y="356.0" width="12.3" height="24" fill="#ffffff" stroke="none" stroke-width="0"/><rect x="1283.0" y="356.0" width="12.3" height="24" fill="#ce1126" stroke="none" stroke-width="0"/><circle cx="1277.0" cy="368.0" r="1.92" fill="#8c6b25" stroke="none" stroke-width="0"/><rect x="1259" y="356.0" width="36" height="24" fill="none" stroke="#111" stroke-width="0.8"/>
<text x="1305" y="374.0" font-family="'Noto Sans CJK JP','Hiragino Sans','Yu Gothic','Noto Sans','Arial',sans-serif" font-size="19" font-weight="760" fill="#111111" text-anchor="start">Mexico</text>
<rect x="1245" y="730" width="280" height="88" fill="#eef3ff" stroke="#111" stroke-width="4"/>
<line x1="1245" y1="774.0" x2="1525" y2="774.0" stroke="#111" stroke-width="3"/>
<rect x="1248" y="733.0" width="274" height="38.0" fill="#c9f5db" stroke="none"/>
<rect x="1259" y="742.0" width="36" height="24" fill="#fff" stroke="#111" stroke-width="0.8"/><rect x="1259" y="742.0" width="36" height="8.3" fill="#75aadb" stroke="none" stroke-width="0"/><rect x="1259" y="750.0" width="36" height="8.3" fill="#ffffff" stroke="none" stroke-width="0"/><rect x="1259" y="758.0" width="36" height="8.3" fill="#75aadb" stroke="none" stroke-width="0"/><circle cx="1277.0" cy="754.0" r="2.4000000000000004" fill="#f6b40e" stroke="none" stroke-width="0"/><rect x="1259" y="742.0" width="36" height="24" fill="none" stroke="#111" stroke-width="0.8"/>
<text x="1305" y="760.0" font-family="'Noto Sans CJK JP','Hiragino Sans','Yu Gothic','Noto Sans','Arial',sans-serif" font-size="19" font-weight="900" fill="#102818" text-anchor="start">Argentina</text>
<text x="1511" y="760.0" font-family="'Noto Sans CJK JP','Hiragino Sans','Yu Gothic','Noto Sans','Arial',sans-serif" font-size="14" font-weight="900" fill="#102818" text-anchor="end">55.2%</text>
<rect x="1248" y="777.0" width="274" height="38.0" fill="#f5f7fc" stroke="none"/>
<rect x="1259" y="786.0" width="36" height="24" fill="#fff" stroke="#111" stroke-width="0.8"/><rect x="1259" y="786.0" width="36" height="8.3" fill="#fcd116" stroke="none" stroke-width="0"/><rect x="1259" y="794.0" width="36" height="8.3" fill="#003893" stroke="none" stroke-width="0"/><rect x="1259" y="802.0" width="36" height="8.3" fill="#ce1126" stroke="none" stroke-width="0"/><rect x="1259" y="786.0" width="36" height="24" fill="none" stroke="#111" stroke-width="0.8"/>
<text x="1305" y="804.0" font-family="'Noto Sans CJK JP','Hiragino Sans','Yu Gothic','Noto Sans','Arial',sans-serif" font-size="19" font-weight="760" fill="#111111" text-anchor="start">Colombia</text>
<rect x="980" y="515" width="280" height="88" fill="#eef3ff" stroke="#111" stroke-width="4"/>
<line x1="980" y1="559.0" x2="1260" y2="559.0" stroke="#111" stroke-width="3"/>
<rect x="983" y="518.0" width="274" height="38.0" fill="#f5f7fc" stroke="none"/>
<rect x="994" y="527.0" width="36" height="24" fill="#fff" stroke="#111" stroke-width="0.8"/><rect x="994" y="527.0" width="36" height="24" fill="#009b3a" stroke="none" stroke-width="0"/><polygon points="1012.0,530.0 1026,539.0 1012.0,548.0 998,539.0" fill="#ffdf00" stroke="none" stroke-width="0"/><circle cx="1012.0" cy="539.0" r="5.5200000000000005" fill="#002776" stroke="none" stroke-width="0"/><rect x="994" y="527.0" width="36" height="24" fill="none" stroke="#111" stroke-width="0.8"/>
<text x="1040" y="545.0" font-family="'Noto Sans CJK JP','Hiragino Sans','Yu Gothic','Noto Sans','Arial',sans-serif" font-size="19" font-weight="760" fill="#111111" text-anchor="start">Brazil</text>
<rect x="983" y="562.0" width="274" height="38.0" fill="#c9f5db" stroke="none"/>
<rect x="994" y="571.0" width="36" height="24" fill="#fff" stroke="#111" stroke-width="0.8"/><rect x="994" y="571.0" width="36" height="8.3" fill="#75aadb" stroke="none" stroke-width="0"/><rect x="994" y="579.0" width="36" height="8.3" fill="#ffffff" stroke="none" stroke-width="0"/><rect x="994" y="587.0" width="36" height="8.3" fill="#75aadb" stroke="none" stroke-width="0"/><circle cx="1012.0" cy="583.0" r="2.4000000000000004" fill="#f6b40e" stroke="none" stroke-width="0"/><rect x="994" y="571.0" width="36" height="24" fill="none" stroke="#111" stroke-width="0.8"/>
<text x="1040" y="589.0" font-family="'Noto Sans CJK JP','Hiragino Sans','Yu Gothic','Noto Sans','Arial',sans-serif" font-size="19" font-weight="900" fill="#102818" text-anchor="start">Argentina</text>
<text x="1246" y="589.0" font-family="'Noto Sans CJK JP','Hiragino Sans','Yu Gothic','Noto Sans','Arial',sans-serif" font-size="14" font-weight="900" fill="#102818" text-anchor="end">53.8%</text>
<rect x="780.0" y="250" width="320" height="98" fill="#eef3ff" stroke="#111" stroke-width="4"/>
<line x1="780.0" y1="299.0" x2="1100.0" y2="299.0" stroke="#111" stroke-width="3"/>
<rect x="783.0" y="253.0" width="314" height="43.0" fill="#f4c542" stroke="none"/>
<rect x="794.0" y="264.5" width="36" height="24" fill="#fff" stroke="#111" stroke-width="0.8"/><rect x="794.0" y="264.5" width="36" height="8.3" fill="#aa151b" stroke="none" stroke-width="0"/><rect x="794.0" y="272.5" width="36" height="8.3" fill="#f1bf00" stroke="none" stroke-width="0"/><rect x="794.0" y="280.5" width="36" height="8.3" fill="#aa151b" stroke="none" stroke-width="0"/><rect x="794.0" y="264.5" width="36" height="24" fill="none" stroke="#111" stroke-width="0.8"/>
<text x="840.0" y="282.5" font-family="'Noto Sans CJK JP','Hiragino Sans','Yu Gothic','Noto Sans','Arial',sans-serif" font-size="19" font-weight="900" fill="#1b1600" text-anchor="start">Spain</text>
<text x="1086.0" y="282.5" font-family="'Noto Sans CJK JP','Hiragino Sans','Yu Gothic','Noto Sans','Arial',sans-serif" font-size="13" font-weight="900" fill="#1b1600" text-anchor="end">Final win 51.2%</text>
<rect x="783.0" y="302.0" width="314" height="43.0" fill="#f5f7fc" stroke="none"/>
<rect x="794.0" y="313.5" width="36" height="24" fill="#fff" stroke="#111" stroke-width="0.8"/><rect x="794.0" y="313.5" width="36" height="8.3" fill="#75aadb" stroke="none" stroke-width="0"/><rect x="794.0" y="321.5" width="36" height="8.3" fill="#ffffff" stroke="none" stroke-width="0"/><rect x="794.0" y="329.5" width="36" height="8.3" fill="#75aadb" stroke="none" stroke-width="0"/><circle cx="812.0" cy="325.5" r="2.4000000000000004" fill="#f6b40e" stroke="none" stroke-width="0"/><rect x="794.0" y="313.5" width="36" height="24" fill="none" stroke="#111" stroke-width="0.8"/>
<text x="840.0" y="331.5" font-family="'Noto Sans CJK JP','Hiragino Sans','Yu Gothic','Noto Sans','Arial',sans-serif" font-size="19" font-weight="760" fill="#111111" text-anchor="start">Argentina</text>
<rect x="780.0" y="705" width="320" height="98" fill="#eef3ff" stroke="#111" stroke-width="4"/>
<line x1="780.0" y1="754.0" x2="1100.0" y2="754.0" stroke="#111" stroke-width="3"/>
<rect x="783.0" y="708.0" width="314" height="43.0" fill="#f5f7fc" stroke="none"/>
<rect x="794.0" y="719.5" width="36" height="24" fill="#fff" stroke="#111" stroke-width="0.8"/><rect x="794.0" y="719.5" width="12.3" height="24" fill="#002395" stroke="none" stroke-width="0"/><rect x="806.0" y="719.5" width="12.3" height="24" fill="#ffffff" stroke="none" stroke-width="0"/><rect x="818.0" y="719.5" width="12.3" height="24" fill="#ed2939" stroke="none" stroke-width="0"/><rect x="794.0" y="719.5" width="36" height="24" fill="none" stroke="#111" stroke-width="0.8"/>
<text x="840.0" y="737.5" font-family="'Noto Sans CJK JP','Hiragino Sans','Yu Gothic','Noto Sans','Arial',sans-serif" font-size="19" font-weight="760" fill="#111111" text-anchor="start">France</text>
<rect x="783.0" y="757.0" width="314" height="43.0" fill="#c9f5db" stroke="none"/>
<rect x="794.0" y="768.5" width="36" height="24" fill="#fff" stroke="#111" stroke-width="0.8"/><rect x="794.0" y="768.5" width="36" height="24" fill="#009b3a" stroke="none" stroke-width="0"/><polygon points="812.0,771.5 826.0,780.5 812.0,789.5 798.0,780.5" fill="#ffdf00" stroke="none" stroke-width="0"/><circle cx="812.0" cy="780.5" r="5.5200000000000005" fill="#002776" stroke="none" stroke-width="0"/><rect x="794.0" y="768.5" width="36" height="24" fill="none" stroke="#111" stroke-width="0.8"/>
<text x="840.0" y="786.5" font-family="'Noto Sans CJK JP','Hiragino Sans','Yu Gothic','Noto Sans','Arial',sans-serif" font-size="19" font-weight="900" fill="#102818" text-anchor="start">Brazil</text>
<text x="1086.0" y="786.5" font-family="'Noto Sans CJK JP','Hiragino Sans','Yu Gothic','Noto Sans','Arial',sans-serif" font-size="14" font-weight="900" fill="#102818" text-anchor="end">50.7%</text>
<rect x="780.0" y="156" width="320" height="62" rx="14" fill="#f4c542" stroke="#111" stroke-width="4"/>
<rect x="800.0" y="174" width="36" height="24" fill="#fff" stroke="#111" stroke-width="0.8"/><rect x="800.0" y="174.0" width="36" height="8.3" fill="#aa151b" stroke="none" stroke-width="0"/><rect x="800.0" y="182.0" width="36" height="8.3" fill="#f1bf00" stroke="none" stroke-width="0"/><rect x="800.0" y="190.0" width="36" height="8.3" fill="#aa151b" stroke="none" stroke-width="0"/><rect x="800.0" y="174" width="36" height="24" fill="none" stroke="#111" stroke-width="0.8"/>
<text x="1082.0" y="176" font-family="'Noto Sans CJK JP','Hiragino Sans','Yu Gothic','Noto Sans','Arial',sans-serif" font-size="13" font-weight="900" fill="#785500" text-anchor="end">Champion</text>
<text x="960.0" y="196" font-family="'Noto Sans CJK JP','Hiragino Sans','Yu Gothic','Noto Sans','Arial',sans-serif" font-size="19" font-weight="900" fill="#1b1600" text-anchor="middle">Spain</text>
<text x="960.0" y="213" font-family="'Noto Sans CJK JP','Hiragino Sans','Yu Gothic','Noto Sans','Arial',sans-serif" font-size="11" font-weight="900" fill="#4f3900" text-anchor="middle">Conditional champion probability: 9.6%</text>
</svg>