<svg xmlns="http://www.w3.org/2000/svg" width="1800" height="1120" viewBox="0 0 1800 1120">
<rect width="1800" height="1120" fill="#dce5f7"/>
<circle cx="38" cy="38" r="30" fill="none" stroke="#49a6aa" stroke-width="6" opacity=".9"/>
<text x="70" y="70" font-family="'Noto Sans CJK JP','Hiragino Sans','Yu Gothic','Noto Sans','Arial',sans-serif" font-size="42" font-weight="900" fill="#111" text-anchor="start">2026 W杯 2段階シミュレーション</text>
<text x="70" y="108" font-family="'Noto Sans CJK JP','Hiragino Sans','Yu Gothic','Noto Sans','Arial',sans-serif" font-size="24" font-weight="800" fill="#526077" text-anchor="start">Round of 32</text>
<text x="70" y="138" font-family="'Noto Sans CJK JP','Hiragino Sans','Yu Gothic','Noto Sans','Arial',sans-serif" font-size="17" font-weight="700" fill="#526077" text-anchor="start">シナリオ: C01 / Annex C: 37</text>
<rect x="70" y="185" width="405" height="190" rx="10" fill="#f6f8ff" stroke="#111111" stroke-width="3"/>
<text x="86" y="213" font-family="'Noto Sans CJK JP','Hiragino Sans','Yu Gothic','Noto Sans','Arial',sans-serif" font-size="18" font-weight="900" fill="#526077" text-anchor="start">M73</text>
<rect x="88" y="233" width="369" height="42" rx="7" fill="#f5f7fc" stroke="#111111" stroke-width="2"/>
<rect x="104" y="242" width="36" height="24" fill="#fff" stroke="#111" stroke-width="0.8"/><rect x="104" y="242" width="36" height="24" fill="#ffffff" stroke="none" stroke-width="0"/><circle cx="122.0" cy="254.0" r="4.800000000000001" fill="#cd2e3a" stroke="none" stroke-width="0"/><circle cx="122.0" cy="255.44" r="3.5999999999999996" fill="#0047a0" stroke="none" stroke-width="0"/><rect x="104" y="242" width="36" height="24" fill="none" stroke="#111" stroke-width="0.8"/>
<text x="150" y="261" font-family="'Noto Sans CJK JP','Hiragino Sans','Yu Gothic','Noto Sans','Arial',sans-serif" font-size="20" font-weight="750" fill="#111111" text-anchor="start">韓国</text>
<rect x="88" y="285" width="369" height="42" rx="7" fill="#c9f5db" stroke="#15834d" stroke-width="2"/>
<rect x="104" y="294" width="36" height="24" fill="#fff" stroke="#111" stroke-width="0.8"/><rect x="104" y="294" width="36" height="24" fill="#d52b1e" stroke="none" stroke-width="0"/><rect x="119.12" y="299.28" width="5.76" height="13.440000000000001" fill="#ffffff" stroke="none" stroke-width="0"/><rect x="113.0" y="303.6" width="18.0" height="4.32" fill="#ffffff" stroke="none" stroke-width="0"/><rect x="104" y="294" width="36" height="24" fill="none" stroke="#111" stroke-width="0.8"/>
<text x="150" y="313" font-family="'Noto Sans CJK JP','Hiragino Sans','Yu Gothic','Noto Sans','Arial',sans-serif" font-size="20" font-weight="900" fill="#102818" text-anchor="start">スイス</text>
<text x="451" y="313" font-family="'Noto Sans CJK JP','Hiragino Sans','Yu Gothic','Noto Sans','Arial',sans-serif" font-size="16" font-weight="900" fill="#102818" text-anchor="end">56.7%</text>
<text x="88" y="357" font-family="'Noto Sans CJK JP','Hiragino Sans','Yu Gothic','Noto Sans','Arial',sans-serif" font-size="13" font-weight="900" fill="#15834d" text-anchor="start">勝者: スイス</text>
<rect x="510" y="185" width="405" height="190" rx="10" fill="#f6f8ff" stroke="#111111" stroke-width="3"/>
<text x="526" y="213" font-family="'Noto Sans CJK JP','Hiragino Sans','Yu Gothic','Noto Sans','Arial',sans-serif" font-size="18" font-weight="900" fill="#526077" text-anchor="start">M74</text>
<rect x="528" y="233" width="369" height="42" rx="7" fill="#c9f5db" stroke="#15834d" stroke-width="2"/>
<rect x="544" y="242" width="36" height="24" fill="#fff" stroke="#111" stroke-width="0.8"/><rect x="544" y="242.0" width="36" height="8.3" fill="#ffdd00" stroke="none" stroke-width="0"/><rect x="544" y="250.0" width="36" height="8.3" fill="#034ea2" stroke="none" stroke-width="0"/><rect x="544" y="258.0" width="36" height="8.3" fill="#ed1c24" stroke="none" stroke-width="0"/><circle cx="562.0" cy="254.0" r="1.6800000000000002" fill="#8c6b25" stroke="none" stroke-width="0"/><rect x="544" y="242" width="36" height="24" fill="none" stroke="#111" stroke-width="0.8"/>
<text x="590" y="261" font-family="'Noto Sans CJK JP','Hiragino Sans','Yu Gothic','Noto Sans','Arial',sans-serif" font-size="20" font-weight="900" fill="#102818" text-anchor="start">エクアドル</text>
<text x="891" y="261" font-family="'Noto Sans CJK JP','Hiragino Sans','Yu Gothic','Noto Sans','Arial',sans-serif" font-size="16" font-weight="900" fill="#102818" text-anchor="end">57.1%</text>
<rect x="528" y="285" width="369" height="42" rx="7" fill="#f5f7fc" stroke="#111111" stroke-width="2"/>
<rect x="544" y="294" width="36" height="24" fill="#fff" stroke="#111" stroke-width="0.8"/><rect x="544" y="294.0" width="36" height="8.3" fill="#d52b1e" stroke="none" stroke-width="0"/><rect x="544" y="302.0" width="36" height="8.3" fill="#ffffff" stroke="none" stroke-width="0"/><rect x="544" y="310.0" width="36" height="8.3" fill="#0038a8" stroke="none" stroke-width="0"/><rect x="544" y="294" width="36" height="24" fill="none" stroke="#111" stroke-width="0.8"/>
<text x="590" y="313" font-family="'Noto Sans CJK JP','Hiragino Sans','Yu Gothic','Noto Sans','Arial',sans-serif" font-size="20" font-weight="750" fill="#111111" text-anchor="start">パラグアイ</text>
<text x="528" y="357" font-family="'Noto Sans CJK JP','Hiragino Sans','Yu Gothic','Noto Sans','Arial',sans-serif" font-size="13" font-weight="900" fill="#15834d" text-anchor="start">勝者: エクアドル</text>
<rect x="950" y="185" width="405" height="190" rx="10" fill="#f6f8ff" stroke="#111111" stroke-width="3"/>
<text x="966" y="213" font-family="'Noto Sans CJK JP','Hiragino Sans','Yu Gothic','Noto Sans','Arial',sans-serif" font-size="18" font-weight="900" fill="#526077" text-anchor="start">M75</text>
<rect x="968" y="233" width="369" height="42" rx="7" fill="#c9f5db" stroke="#15834d" stroke-width="2"/>
<rect x="984" y="242" width="36" height="24" fill="#fff" stroke="#111" stroke-width="0.8"/><rect x="984" y="242" width="36" height="24" fill="#ffffff" stroke="none" stroke-width="0"/><circle cx="1002.0" cy="254.0" r="6.720000000000001" fill="#bc002d" stroke="none" stroke-width="0"/><rect x="984" y="242" width="36" height="24" fill="none" stroke="#111" stroke-width="0.8"/>
<text x="1030" y="261" font-family="'Noto Sans CJK JP','Hiragino Sans','Yu Gothic','Noto Sans','Arial',sans-serif" font-size="20" font-weight="900" fill="#102818" text-anchor="start">日本</text>
<text x="1331" y="261" font-family="'Noto Sans CJK JP','Hiragino Sans','Yu Gothic','Noto Sans','Arial',sans-serif" font-size="16" font-weight="900" fill="#102818" text-anchor="end">51.6%</text>
<rect x="968" y="285" width="369" height="42" rx="7" fill="#f5f7fc" stroke="#111111" stroke-width="2"/>
<rect x="984" y="294" width="36" height="24" fill="#fff" stroke="#111" stroke-width="0.8"/><rect x="984" y="294" width="36" height="24" fill="#c1272d" stroke="none" stroke-width="0"/><text x="1002.0" y="310.08" font-family="'Noto Sans CJK JP','Hiragino Sans','Yu Gothic','Noto Sans','Arial',sans-serif" font-size="8.16" font-weight="900" fill="#006233" text-anchor="middle">★</text><rect x="984" y="294" width="36" height="24" fill="none" stroke="#111" stroke-width="0.8"/>
<text x="1030" y="313" font-family="'Noto Sans CJK JP','Hiragino Sans','Yu Gothic','Noto Sans','Arial',sans-serif" font-size="20" font-weight="750" fill="#111111" text-anchor="start">モロッコ</text>
<text x="968" y="357" font-family="'Noto Sans CJK JP','Hiragino Sans','Yu Gothic','Noto Sans','Arial',sans-serif" font-size="13" font-weight="900" fill="#15834d" text-anchor="start">勝者: 日本</text>
<rect x="1390" y="185" width="405" height="190" rx="10" fill="#f6f8ff" stroke="#111111" stroke-width="3"/>
<text x="1406" y="213" font-family="'Noto Sans CJK JP','Hiragino Sans','Yu Gothic','Noto Sans','Arial',sans-serif" font-size="18" font-weight="900" fill="#526077" text-anchor="start">M76</text>
<rect x="1408" y="233" width="369" height="42" rx="7" fill="#c9f5db" stroke="#15834d" stroke-width="2"/>
<rect x="1424" y="242" width="36" height="24" fill="#fff" stroke="#111" stroke-width="0.8"/><rect x="1424" y="242" width="36" height="24" fill="#009b3a" stroke="none" stroke-width="0"/><polygon points="1442.0,245 1456,254.0 1442.0,263 1428,254.0" fill="#ffdf00" stroke="none" stroke-width="0"/><circle cx="1442.0" cy="254.0" r="5.5200000000000005" fill="#002776" stroke="none" stroke-width="0"/><rect x="1424" y="242" width="36" height="24" fill="none" stroke="#111" stroke-width="0.8"/>
<text x="1470" y="261" font-family="'Noto Sans CJK JP','Hiragino Sans','Yu Gothic','Noto Sans','Arial',sans-serif" font-size="20" font-weight="900" fill="#102818" text-anchor="start">ブラジル</text>
<text x="1771" y="261" font-family="'Noto Sans CJK JP','Hiragino Sans','Yu Gothic','Noto Sans','Arial',sans-serif" font-size="16" font-weight="900" fill="#102818" text-anchor="end">59.5%</text>
<rect x="1408" y="285" width="369" height="42" rx="7" fill="#f5f7fc" stroke="#111111" stroke-width="2"/>
<rect x="1424" y="294" width="36" height="24" fill="#fff" stroke="#111" stroke-width="0.8"/><rect x="1424" y="294.0" width="36" height="8.3" fill="#ae1c28" stroke="none" stroke-width="0"/><rect x="1424" y="302.0" width="36" height="8.3" fill="#ffffff" stroke="none" stroke-width="0"/><rect x="1424" y="310.0" width="36" height="8.3" fill="#21468b" stroke="none" stroke-width="0"/><rect x="1424" y="294" width="36" height="24" fill="none" stroke="#111" stroke-width="0.8"/>
<text x="1470" y="313" font-family="'Noto Sans CJK JP','Hiragino Sans','Yu Gothic','Noto Sans','Arial',sans-serif" font-size="20" font-weight="750" fill="#111111" text-anchor="start">オランダ</text>
<text x="1408" y="357" font-family="'Noto Sans CJK JP','Hiragino Sans','Yu Gothic','Noto Sans','Arial',sans-serif" font-size="13" font-weight="900" fill="#15834d" text-anchor="start">勝者: ブラジル</text>
<rect x="70" y="411" width="405" height="190" rx="10" fill="#f6f8ff" stroke="#111111" stroke-width="3"/>
<text x="86" y="439" font-family="'Noto Sans CJK JP','Hiragino Sans','Yu Gothic','Noto Sans','Arial',sans-serif" font-size="18" font-weight="900" fill="#526077" text-anchor="start">M77</text>
<rect x="88" y="459" width="369" height="42" rx="7" fill="#c9f5db" stroke="#15834d" stroke-width="2"/>
<rect x="104" y="468" width="36" height="24" fill="#fff" stroke="#111" stroke-width="0.8"/><rect x="104.0" y="468" width="12.3" height="24" fill="#002395" stroke="none" stroke-width="0"/><rect x="116.0" y="468" width="12.3" height="24" fill="#ffffff" stroke="none" stroke-width="0"/><rect x="128.0" y="468" width="12.3" height="24" fill="#ed2939" stroke="none" stroke-width="0"/><rect x="104" y="468" width="36" height="24" fill="none" stroke="#111" stroke-width="0.8"/>
<text x="150" y="487" font-family="'Noto Sans CJK JP','Hiragino Sans','Yu Gothic','Noto Sans','Arial',sans-serif" font-size="20" font-weight="900" fill="#102818" text-anchor="start">フランス</text>
<text x="451" y="487" font-family="'Noto Sans CJK JP','Hiragino Sans','Yu Gothic','Noto Sans','Arial',sans-serif" font-size="16" font-weight="900" fill="#102818" text-anchor="end">72.5%</text>
<rect x="88" y="511" width="369" height="42" rx="7" fill="#f5f7fc" stroke="#111111" stroke-width="2"/>
<rect x="104" y="520" width="36" height="24" fill="#fff" stroke="#111" stroke-width="0.8"/><rect x="104" y="520" width="36" height="24" fill="#e70013" stroke="none" stroke-width="0"/><circle cx="122.0" cy="532.0" r="6.0" fill="#ffffff" stroke="none" stroke-width="0"/><text x="122.0" y="535.36" font-family="'Noto Sans CJK JP','Hiragino Sans','Yu Gothic','Noto Sans','Arial',sans-serif" font-size="6.0" font-weight="900" fill="#e70013" text-anchor="middle">★</text><rect x="104" y="520" width="36" height="24" fill="none" stroke="#111" stroke-width="0.8"/>
<text x="150" y="539" font-family="'Noto Sans CJK JP','Hiragino Sans','Yu Gothic','Noto Sans','Arial',sans-serif" font-size="20" font-weight="750" fill="#111111" text-anchor="start">チュニジア</text>
<text x="88" y="583" font-family="'Noto Sans CJK JP','Hiragino Sans','Yu Gothic','Noto Sans','Arial',sans-serif" font-size="13" font-weight="900" fill="#15834d" text-anchor="start">勝者: フランス</text>
<rect x="510" y="411" width="405" height="190" rx="10" fill="#f6f8ff" stroke="#111111" stroke-width="3"/>
<text x="526" y="439" font-family="'Noto Sans CJK JP','Hiragino Sans','Yu Gothic','Noto Sans','Arial',sans-serif" font-size="18" font-weight="900" fill="#526077" text-anchor="start">M78</text>
<rect x="528" y="459" width="369" height="42" rx="7" fill="#f5f7fc" stroke="#111111" stroke-width="2"/>
<rect x="544" y="468" width="36" height="24" fill="#fff" stroke="#111" stroke-width="0.8"/><rect x="544" y="468.0" width="36" height="8.3" fill="#000000" stroke="none" stroke-width="0"/><rect x="544" y="476.0" width="36" height="8.3" fill="#dd0000" stroke="none" stroke-width="0"/><rect x="544" y="484.0" width="36" height="8.3" fill="#ffce00" stroke="none" stroke-width="0"/><rect x="544" y="468" width="36" height="24" fill="none" stroke="#111" stroke-width="0.8"/>
<text x="590" y="487" font-family="'Noto Sans CJK JP','Hiragino Sans','Yu Gothic','Noto Sans','Arial',sans-serif" font-size="20" font-weight="750" fill="#111111" text-anchor="start">ドイツ</text>
<rect x="528" y="511" width="369" height="42" rx="7" fill="#c9f5db" stroke="#15834d" stroke-width="2"/>
<rect x="544" y="520" width="36" height="24" fill="#fff" stroke="#111" stroke-width="0.8"/><rect x="544.0" y="520" width="12.3" height="24" fill="#00853f" stroke="none" stroke-width="0"/><rect x="556.0" y="520" width="12.3" height="24" fill="#fdef42" stroke="none" stroke-width="0"/><rect x="568.0" y="520" width="12.3" height="24" fill="#e31b23" stroke="none" stroke-width="0"/><text x="562.0" y="536.08" font-family="'Noto Sans CJK JP','Hiragino Sans','Yu Gothic','Noto Sans','Arial',sans-serif" font-size="7.199999999999999" font-weight="900" fill="#00853f" text-anchor="middle">★</text><rect x="544" y="520" width="36" height="24" fill="none" stroke="#111" stroke-width="0.8"/>
<text x="590" y="539" font-family="'Noto Sans CJK JP','Hiragino Sans','Yu Gothic','Noto Sans','Arial',sans-serif" font-size="20" font-weight="900" fill="#102818" text-anchor="start">セネガル</text>
<text x="891" y="539" font-family="'Noto Sans CJK JP','Hiragino Sans','Yu Gothic','Noto Sans','Arial',sans-serif" font-size="16" font-weight="900" fill="#102818" text-anchor="end">51.0%</text>
<text x="528" y="583" font-family="'Noto Sans CJK JP','Hiragino Sans','Yu Gothic','Noto Sans','Arial',sans-serif" font-size="13" font-weight="900" fill="#15834d" text-anchor="start">勝者: セネガル</text>
<rect x="950" y="411" width="405" height="190" rx="10" fill="#f6f8ff" stroke="#111111" stroke-width="3"/>
<text x="966" y="439" font-family="'Noto Sans CJK JP','Hiragino Sans','Yu Gothic','Noto Sans','Arial',sans-serif" font-size="18" font-weight="900" fill="#526077" text-anchor="start">M79</text>
<rect x="968" y="459" width="369" height="42" rx="7" fill="#c9f5db" stroke="#15834d" stroke-width="2"/>
<rect x="984" y="468" width="36" height="24" fill="#fff" stroke="#111" stroke-width="0.8"/><rect x="984.0" y="468" width="12.3" height="24" fill="#006847" stroke="none" stroke-width="0"/><rect x="996.0" y="468" width="12.3" height="24" fill="#ffffff" stroke="none" stroke-width="0"/><rect x="1008.0" y="468" width="12.3" height="24" fill="#ce1126" stroke="none" stroke-width="0"/><circle cx="1002.0" cy="480.0" r="1.92" fill="#8c6b25" stroke="none" stroke-width="0"/><rect x="984" y="468" width="36" height="24" fill="none" stroke="#111" stroke-width="0.8"/>
<text x="1030" y="487" font-family="'Noto Sans CJK JP','Hiragino Sans','Yu Gothic','Noto Sans','Arial',sans-serif" font-size="20" font-weight="900" fill="#102818" text-anchor="start">メキシコ</text>
<text x="1331" y="487" font-family="'Noto Sans CJK JP','Hiragino Sans','Yu Gothic','Noto Sans','Arial',sans-serif" font-size="16" font-weight="900" fill="#102818" text-anchor="end">67.5%</text>
<rect x="968" y="511" width="369" height="42" rx="7" fill="#f5f7fc" stroke="#111111" stroke-width="2"/>
<rect x="984" y="520" width="36" height="24" fill="#fff" stroke="#111" stroke-width="0.8"/><rect x="984" y="520" width="36" height="24" fill="#0065bd" stroke="none" stroke-width="0"/><polygon points="984,520 989,520 1020,539 1020,544 1015,544 984,525" fill="#ffffff" stroke="none" stroke-width="0"/><polygon points="1020,520 1020,525 989,544 984,544 984,539 1015,520" fill="#ffffff" stroke="none" stroke-width="0"/><rect x="984" y="520" width="36" height="24" fill="none" stroke="#111" stroke-width="0.8"/>
<text x="1030" y="539" font-family="'Noto Sans CJK JP','Hiragino Sans','Yu Gothic','Noto Sans','Arial',sans-serif" font-size="20" font-weight="750" fill="#111111" text-anchor="start">スコットランド</text>
<text x="968" y="583" font-family="'Noto Sans CJK JP','Hiragino Sans','Yu Gothic','Noto Sans','Arial',sans-serif" font-size="13" font-weight="900" fill="#15834d" text-anchor="start">勝者: メキシコ</text>
<rect x="1390" y="411" width="405" height="190" rx="10" fill="#f6f8ff" stroke="#111111" stroke-width="3"/>
<text x="1406" y="439" font-family="'Noto Sans CJK JP','Hiragino Sans','Yu Gothic','Noto Sans','Arial',sans-serif" font-size="18" font-weight="900" fill="#526077" text-anchor="start">M80</text>
<rect x="1408" y="459" width="369" height="42" rx="7" fill="#c9f5db" stroke="#15834d" stroke-width="2"/>
<rect x="1424" y="468" width="36" height="24" fill="#fff" stroke="#111" stroke-width="0.8"/><rect x="1424" y="468" width="36" height="24" fill="#ffffff" stroke="none" stroke-width="0"/><rect x="1439.48" y="468" width="5.040000000000001" height="24" fill="#cf142b" stroke="none" stroke-width="0"/><rect x="1424" y="478.08" width="36" height="3.84" fill="#cf142b" stroke="none" stroke-width="0"/><rect x="1424" y="468" width="36" height="24" fill="none" stroke="#111" stroke-width="0.8"/>
<text x="1470" y="487" font-family="'Noto Sans CJK JP','Hiragino Sans','Yu Gothic','Noto Sans','Arial',sans-serif" font-size="20" font-weight="900" fill="#102818" text-anchor="start">イングランド</text>
<text x="1771" y="487" font-family="'Noto Sans CJK JP','Hiragino Sans','Yu Gothic','Noto Sans','Arial',sans-serif" font-size="16" font-weight="900" fill="#102818" text-anchor="end">62.5%</text>
<rect x="1408" y="511" width="369" height="42" rx="7" fill="#f5f7fc" stroke="#111111" stroke-width="2"/>
<rect x="1424" y="520" width="36" height="24" fill="#fff" stroke="#111" stroke-width="0.8"/><rect x="1424" y="520" width="36" height="24" fill="#00a3e0" stroke="none" stroke-width="0"/><polygon points="1424,544 1460,520" fill="#f7d618" stroke="none" stroke-width="0"/><polygon points="1424,541.12 1455.68,520" fill="#ce1021" stroke="none" stroke-width="0"/><text x="1431.2" y="530.08" font-family="'Noto Sans CJK JP','Hiragino Sans','Yu Gothic','Noto Sans','Arial',sans-serif" font-size="5.76" font-weight="900" fill="#f7d618" text-anchor="middle">★</text><rect x="1424" y="520" width="36" height="24" fill="none" stroke="#111" stroke-width="0.8"/>
<text x="1470" y="539" font-family="'Noto Sans CJK JP','Hiragino Sans','Yu Gothic','Noto Sans','Arial',sans-serif" font-size="20" font-weight="750" fill="#111111" text-anchor="start">コンゴ民主共和国</text>
<text x="1408" y="583" font-family="'Noto Sans CJK JP','Hiragino Sans','Yu Gothic','Noto Sans','Arial',sans-serif" font-size="13" font-weight="900" fill="#15834d" text-anchor="start">勝者: イングランド</text>
<rect x="70" y="637" width="405" height="190" rx="10" fill="#f6f8ff" stroke="#111111" stroke-width="3"/>
<text x="86" y="665" font-family="'Noto Sans CJK JP','Hiragino Sans','Yu Gothic','Noto Sans','Arial',sans-serif" font-size="18" font-weight="900" fill="#526077" text-anchor="start">M81</text>
<rect x="88" y="685" width="369" height="42" rx="7" fill="#c9f5db" stroke="#15834d" stroke-width="2"/>
<rect x="104" y="694" width="36" height="24" fill="#fff" stroke="#111" stroke-width="0.8"/><rect x="104" y="694" width="36" height="24" fill="#e30a17" stroke="none" stroke-width="0"/><circle cx="118.4" cy="706.0" r="5.28" fill="#ffffff" stroke="none" stroke-width="0"/><circle cx="120.92" cy="706.0" r="4.32" fill="#e30a17" stroke="none" stroke-width="0"/><text x="126.32" y="710.08" font-family="'Noto Sans CJK JP','Hiragino Sans','Yu Gothic','Noto Sans','Arial',sans-serif" font-size="7.199999999999999" font-weight="900" fill="#ffffff" text-anchor="middle">★</text><rect x="104" y="694" width="36" height="24" fill="none" stroke="#111" stroke-width="0.8"/>
<text x="150" y="713" font-family="'Noto Sans CJK JP','Hiragino Sans','Yu Gothic','Noto Sans','Arial',sans-serif" font-size="20" font-weight="900" fill="#102818" text-anchor="start">トルコ</text>
<text x="451" y="713" font-family="'Noto Sans CJK JP','Hiragino Sans','Yu Gothic','Noto Sans','Arial',sans-serif" font-size="16" font-weight="900" fill="#102818" text-anchor="end">58.0%</text>
<rect x="88" y="737" width="369" height="42" rx="7" fill="#f5f7fc" stroke="#111111" stroke-width="2"/>
<rect x="104" y="746" width="36" height="24" fill="#fff" stroke="#111" stroke-width="0.8"/><rect x="104.0" y="746" width="12.3" height="24" fill="#f77f00" stroke="none" stroke-width="0"/><rect x="116.0" y="746" width="12.3" height="24" fill="#ffffff" stroke="none" stroke-width="0"/><rect x="128.0" y="746" width="12.3" height="24" fill="#009e60" stroke="none" stroke-width="0"/><rect x="104" y="746" width="36" height="24" fill="none" stroke="#111" stroke-width="0.8"/>
<text x="150" y="765" font-family="'Noto Sans CJK JP','Hiragino Sans','Yu Gothic','Noto Sans','Arial',sans-serif" font-size="20" font-weight="750" fill="#111111" text-anchor="start">コートジボワール</text>
<text x="88" y="809" font-family="'Noto Sans CJK JP','Hiragino Sans','Yu Gothic','Noto Sans','Arial',sans-serif" font-size="13" font-weight="900" fill="#15834d" text-anchor="start">勝者: トルコ</text>
<rect x="510" y="637" width="405" height="190" rx="10" fill="#f6f8ff" stroke="#111111" stroke-width="3"/>
<text x="526" y="665" font-family="'Noto Sans CJK JP','Hiragino Sans','Yu Gothic','Noto Sans','Arial',sans-serif" font-size="18" font-weight="900" fill="#526077" text-anchor="start">M82</text>
<rect x="528" y="685" width="369" height="42" rx="7" fill="#f5f7fc" stroke="#111111" stroke-width="2"/>
<rect x="544" y="694" width="36" height="24" fill="#fff" stroke="#111" stroke-width="0.8"/><rect x="544.0" y="694" width="12.3" height="24" fill="#000000" stroke="none" stroke-width="0"/><rect x="556.0" y="694" width="12.3" height="24" fill="#fae042" stroke="none" stroke-width="0"/><rect x="568.0" y="694" width="12.3" height="24" fill="#ed2939" stroke="none" stroke-width="0"/><rect x="544" y="694" width="36" height="24" fill="none" stroke="#111" stroke-width="0.8"/>
<text x="590" y="713" font-family="'Noto Sans CJK JP','Hiragino Sans','Yu Gothic','Noto Sans','Arial',sans-serif" font-size="20" font-weight="750" fill="#111111" text-anchor="start">ベルギー</text>
<rect x="528" y="737" width="369" height="42" rx="7" fill="#c9f5db" stroke="#15834d" stroke-width="2"/>
<rect x="544" y="746" width="36" height="24" fill="#fff" stroke="#111" stroke-width="0.8"/><rect x="544" y="746" width="36" height="24" fill="#ba0c2f" stroke="none" stroke-width="0"/><rect x="553.72" y="746" width="7.92" height="24" fill="#ffffff" stroke="none" stroke-width="0"/><rect x="544" y="755.12" width="36" height="5.76" fill="#ffffff" stroke="none" stroke-width="0"/><rect x="555.52" y="746" width="3.96" height="24" fill="#00205b" stroke="none" stroke-width="0"/><rect x="544" y="756.56" width="36" height="2.88" fill="#00205b" stroke="none" stroke-width="0"/><rect x="544" y="746" width="36" height="24" fill="none" stroke="#111" stroke-width="0.8"/>
<text x="590" y="765" font-family="'Noto Sans CJK JP','Hiragino Sans','Yu Gothic','Noto Sans','Arial',sans-serif" font-size="20" font-weight="900" fill="#102818" text-anchor="start">ノルウェー</text>
<text x="891" y="765" font-family="'Noto Sans CJK JP','Hiragino Sans','Yu Gothic','Noto Sans','Arial',sans-serif" font-size="16" font-weight="900" fill="#102818" text-anchor="end">50.9%</text>
<text x="528" y="809" font-family="'Noto Sans CJK JP','Hiragino Sans','Yu Gothic','Noto Sans','Arial',sans-serif" font-size="13" font-weight="900" fill="#15834d" text-anchor="start">勝者: ノルウェー</text>
<rect x="950" y="637" width="405" height="190" rx="10" fill="#f6f8ff" stroke="#111111" stroke-width="3"/>
<text x="966" y="665" font-family="'Noto Sans CJK JP','Hiragino Sans','Yu Gothic','Noto Sans','Arial',sans-serif" font-size="18" font-weight="900" fill="#526077" text-anchor="start">M83</text>
<rect x="968" y="685" width="369" height="42" rx="7" fill="#c9f5db" stroke="#15834d" stroke-width="2"/>
<rect x="984" y="694" width="36" height="24" fill="#fff" stroke="#111" stroke-width="0.8"/><rect x="984.0" y="694" width="18.3" height="24" fill="#006600" stroke="none" stroke-width="0"/><rect x="1002.0" y="694" width="18.3" height="24" fill="#ff0000" stroke="none" stroke-width="0"/><circle cx="999.12" cy="706.0" r="3.12" fill="#ffcc00" stroke="none" stroke-width="0"/><rect x="984" y="694" width="36" height="24" fill="none" stroke="#111" stroke-width="0.8"/>
<text x="1030" y="713" font-family="'Noto Sans CJK JP','Hiragino Sans','Yu Gothic','Noto Sans','Arial',sans-serif" font-size="20" font-weight="900" fill="#102818" text-anchor="start">ポルトガル</text>
<text x="1331" y="713" font-family="'Noto Sans CJK JP','Hiragino Sans','Yu Gothic','Noto Sans','Arial',sans-serif" font-size="16" font-weight="900" fill="#102818" text-anchor="end">52.4%</text>
<rect x="968" y="737" width="369" height="42" rx="7" fill="#f5f7fc" stroke="#111111" stroke-width="2"/>
<rect x="984" y="746" width="36" height="24" fill="#fff" stroke="#111" stroke-width="0.8"/><rect x="984" y="746.0" width="36" height="8.3" fill="#ff0000" stroke="none" stroke-width="0"/><rect x="984" y="754.0" width="36" height="8.3" fill="#ffffff" stroke="none" stroke-width="0"/><rect x="984" y="762.0" width="36" height="8.3" fill="#171796" stroke="none" stroke-width="0"/><rect x="999.48" y="754.16" width="5.040000000000001" height="7.68" fill="#ff0000" stroke="none" stroke-width="0"/><rect x="984" y="746" width="36" height="24" fill="none" stroke="#111" stroke-width="0.8"/>
<text x="1030" y="765" font-family="'Noto Sans CJK JP','Hiragino Sans','Yu Gothic','Noto Sans','Arial',sans-serif" font-size="20" font-weight="750" fill="#111111" text-anchor="start">クロアチア</text>
<text x="968" y="809" font-family="'Noto Sans CJK JP','Hiragino Sans','Yu Gothic','Noto Sans','Arial',sans-serif" font-size="13" font-weight="900" fill="#15834d" text-anchor="start">勝者: ポルトガル</text>
<rect x="1390" y="637" width="405" height="190" rx="10" fill="#f6f8ff" stroke="#111111" stroke-width="3"/>
<text x="1406" y="665" font-family="'Noto Sans CJK JP','Hiragino Sans','Yu Gothic','Noto Sans','Arial',sans-serif" font-size="18" font-weight="900" fill="#526077" text-anchor="start">M84</text>
<rect x="1408" y="685" width="369" height="42" rx="7" fill="#c9f5db" stroke="#15834d" stroke-width="2"/>
<rect x="1424" y="694" width="36" height="24" fill="#fff" stroke="#111" stroke-width="0.8"/><rect x="1424" y="694.0" width="36" height="8.3" fill="#aa151b" stroke="none" stroke-width="0"/><rect x="1424" y="702.0" width="36" height="8.3" fill="#f1bf00" stroke="none" stroke-width="0"/><rect x="1424" y="710.0" width="36" height="8.3" fill="#aa151b" stroke="none" stroke-width="0"/><rect x="1424" y="694" width="36" height="24" fill="none" stroke="#111" stroke-width="0.8"/>
<text x="1470" y="713" font-family="'Noto Sans CJK JP','Hiragino Sans','Yu Gothic','Noto Sans','Arial',sans-serif" font-size="20" font-weight="900" fill="#102818" text-anchor="start">スペイン</text>
<text x="1771" y="713" font-family="'Noto Sans CJK JP','Hiragino Sans','Yu Gothic','Noto Sans','Arial',sans-serif" font-size="16" font-weight="900" fill="#102818" text-anchor="end">68.8%</text>
<rect x="1408" y="737" width="369" height="42" rx="7" fill="#f5f7fc" stroke="#111111" stroke-width="2"/>
<rect x="1424" y="746" width="36" height="24" fill="#fff" stroke="#111" stroke-width="0.8"/><rect x="1424" y="746.0" width="36" height="8.3" fill="#ed2939" stroke="none" stroke-width="0"/><rect x="1424" y="754.0" width="36" height="8.3" fill="#ffffff" stroke="none" stroke-width="0"/><rect x="1424" y="762.0" width="36" height="8.3" fill="#ed2939" stroke="none" stroke-width="0"/><rect x="1424" y="746" width="36" height="24" fill="none" stroke="#111" stroke-width="0.8"/>
<text x="1470" y="765" font-family="'Noto Sans CJK JP','Hiragino Sans','Yu Gothic','Noto Sans','Arial',sans-serif" font-size="20" font-weight="750" fill="#111111" text-anchor="start">オーストリア</text>
<text x="1408" y="809" font-family="'Noto Sans CJK JP','Hiragino Sans','Yu Gothic','Noto Sans','Arial',sans-serif" font-size="13" font-weight="900" fill="#15834d" text-anchor="start">勝者: スペイン</text>
<rect x="70" y="863" width="405" height="190" rx="10" fill="#f6f8ff" stroke="#111111" stroke-width="3"/>
<text x="86" y="891" font-family="'Noto Sans CJK JP','Hiragino Sans','Yu Gothic','Noto Sans','Arial',sans-serif" font-size="18" font-weight="900" fill="#526077" text-anchor="start">M85</text>
<rect x="88" y="911" width="369" height="42" rx="7" fill="#c9f5db" stroke="#15834d" stroke-width="2"/>
<rect x="104" y="920" width="36" height="24" fill="#fff" stroke="#111" stroke-width="0.8"/><rect x="104.0" y="920" width="12.3" height="24" fill="#d52b1e" stroke="none" stroke-width="0"/><rect x="116.0" y="920" width="12.3" height="24" fill="#ffffff" stroke="none" stroke-width="0"/><rect x="128.0" y="920" width="12.3" height="24" fill="#d52b1e" stroke="none" stroke-width="0"/><text x="122.0" y="936.32" font-family="'Noto Sans CJK JP','Hiragino Sans','Yu Gothic','Noto Sans','Arial',sans-serif" font-size="13.200000000000001" font-weight="900" fill="#d52b1e" text-anchor="middle">✦</text><rect x="104" y="920" width="36" height="24" fill="none" stroke="#111" stroke-width="0.8"/>
<text x="150" y="939" font-family="'Noto Sans CJK JP','Hiragino Sans','Yu Gothic','Noto Sans','Arial',sans-serif" font-size="20" font-weight="900" fill="#102818" text-anchor="start">カナダ</text>
<text x="451" y="939" font-family="'Noto Sans CJK JP','Hiragino Sans','Yu Gothic','Noto Sans','Arial',sans-serif" font-size="16" font-weight="900" fill="#102818" text-anchor="end">60.8%</text>
<rect x="88" y="963" width="369" height="42" rx="7" fill="#f5f7fc" stroke="#111111" stroke-width="2"/>
<rect x="104" y="972" width="36" height="24" fill="#fff" stroke="#111" stroke-width="0.8"/><rect x="104" y="972.0" width="36" height="8.3" fill="#ce1126" stroke="none" stroke-width="0"/><rect x="104" y="980.0" width="36" height="8.3" fill="#ffffff" stroke="none" stroke-width="0"/><rect x="104" y="988.0" width="36" height="8.3" fill="#000000" stroke="none" stroke-width="0"/><circle cx="122.0" cy="984.0" r="1.44" fill="#c09300" stroke="none" stroke-width="0"/><rect x="104" y="972" width="36" height="24" fill="none" stroke="#111" stroke-width="0.8"/>
<text x="150" y="991" font-family="'Noto Sans CJK JP','Hiragino Sans','Yu Gothic','Noto Sans','Arial',sans-serif" font-size="20" font-weight="750" fill="#111111" text-anchor="start">エジプト</text>
<text x="88" y="1035" font-family="'Noto Sans CJK JP','Hiragino Sans','Yu Gothic','Noto Sans','Arial',sans-serif" font-size="13" font-weight="900" fill="#15834d" text-anchor="start">勝者: カナダ</text>
<rect x="510" y="863" width="405" height="190" rx="10" fill="#f6f8ff" stroke="#111111" stroke-width="3"/>
<text x="526" y="891" font-family="'Noto Sans CJK JP','Hiragino Sans','Yu Gothic','Noto Sans','Arial',sans-serif" font-size="18" font-weight="900" fill="#526077" text-anchor="start">M86</text>
<rect x="528" y="911" width="369" height="42" rx="7" fill="#c9f5db" stroke="#15834d" stroke-width="2"/>
<rect x="544" y="920" width="36" height="24" fill="#fff" stroke="#111" stroke-width="0.8"/><rect x="544" y="920.0" width="36" height="8.3" fill="#75aadb" stroke="none" stroke-width="0"/><rect x="544" y="928.0" width="36" height="8.3" fill="#ffffff" stroke="none" stroke-width="0"/><rect x="544" y="936.0" width="36" height="8.3" fill="#75aadb" stroke="none" stroke-width="0"/><circle cx="562.0" cy="932.0" r="2.4000000000000004" fill="#f6b40e" stroke="none" stroke-width="0"/><rect x="544" y="920" width="36" height="24" fill="none" stroke="#111" stroke-width="0.8"/>
<text x="590" y="939" font-family="'Noto Sans CJK JP','Hiragino Sans','Yu Gothic','Noto Sans','Arial',sans-serif" font-size="20" font-weight="900" fill="#102818" text-anchor="start">アルゼンチン</text>
<text x="891" y="939" font-family="'Noto Sans CJK JP','Hiragino Sans','Yu Gothic','Noto Sans','Arial',sans-serif" font-size="16" font-weight="900" fill="#102818" text-anchor="end">62.1%</text>
<rect x="528" y="963" width="369" height="42" rx="7" fill="#f5f7fc" stroke="#111111" stroke-width="2"/>
<rect x="544" y="972" width="36" height="24" fill="#fff" stroke="#111" stroke-width="0.8"/><rect x="544" y="972.0" width="36" height="4.2" fill="#ffffff" stroke="none" stroke-width="0"/><rect x="544" y="976.0" width="36" height="4.2" fill="#75aadb" stroke="none" stroke-width="0"/><rect x="544" y="980.0" width="36" height="4.2" fill="#ffffff" stroke="none" stroke-width="0"/><rect x="544" y="984.0" width="36" height="4.2" fill="#75aadb" stroke="none" stroke-width="0"/><rect x="544" y="988.0" width="36" height="4.2" fill="#ffffff" stroke="none" stroke-width="0"/><rect x="544" y="992.0" width="36" height="4.2" fill="#75aadb" stroke="none" stroke-width="0"/><rect x="544" y="972" width="11.52" height="12.0" fill="#ffffff" stroke="none" stroke-width="0"/><circle cx="549.76" cy="978.0" r="2.4000000000000004" fill="#fcd116" stroke="none" stroke-width="0"/><rect x="544" y="972" width="36" height="24" fill="none" stroke="#111" stroke-width="0.8"/>
<text x="590" y="991" font-family="'Noto Sans CJK JP','Hiragino Sans','Yu Gothic','Noto Sans','Arial',sans-serif" font-size="20" font-weight="750" fill="#111111" text-anchor="start">ウルグアイ</text>
<text x="528" y="1035" font-family="'Noto Sans CJK JP','Hiragino Sans','Yu Gothic','Noto Sans','Arial',sans-serif" font-size="13" font-weight="900" fill="#15834d" text-anchor="start">勝者: アルゼンチン</text>
<rect x="950" y="863" width="405" height="190" rx="10" fill="#f6f8ff" stroke="#111111" stroke-width="3"/>
<text x="966" y="891" font-family="'Noto Sans CJK JP','Hiragino Sans','Yu Gothic','Noto Sans','Arial',sans-serif" font-size="18" font-weight="900" fill="#526077" text-anchor="start">M87</text>
<rect x="968" y="911" width="369" height="42" rx="7" fill="#c9f5db" stroke="#15834d" stroke-width="2"/>
<rect x="984" y="920" width="36" height="24" fill="#fff" stroke="#111" stroke-width="0.8"/><rect x="984" y="920.0" width="36" height="8.3" fill="#fcd116" stroke="none" stroke-width="0"/><rect x="984" y="928.0" width="36" height="8.3" fill="#003893" stroke="none" stroke-width="0"/><rect x="984" y="936.0" width="36" height="8.3" fill="#ce1126" stroke="none" stroke-width="0"/><rect x="984" y="920" width="36" height="24" fill="none" stroke="#111" stroke-width="0.8"/>
<text x="1030" y="939" font-family="'Noto Sans CJK JP','Hiragino Sans','Yu Gothic','Noto Sans','Arial',sans-serif" font-size="20" font-weight="900" fill="#102818" text-anchor="start">コロンビア</text>
<text x="1331" y="939" font-family="'Noto Sans CJK JP','Hiragino Sans','Yu Gothic','Noto Sans','Arial',sans-serif" font-size="16" font-weight="900" fill="#102818" text-anchor="end">64.8%</text>
<rect x="968" y="963" width="369" height="42" rx="7" fill="#f5f7fc" stroke="#111111" stroke-width="2"/>
<rect x="984" y="972" width="36" height="24" fill="#fff" stroke="#111" stroke-width="0.8"/><rect x="984" y="972" width="18.0" height="12.0" fill="#ffffff" stroke="none" stroke-width="0"/><rect x="1002.0" y="972" width="18.0" height="12.0" fill="#d21034" stroke="none" stroke-width="0"/><rect x="984" y="984.0" width="18.0" height="12.0" fill="#005293" stroke="none" stroke-width="0"/><rect x="1002.0" y="984.0" width="18.0" height="12.0" fill="#ffffff" stroke="none" stroke-width="0"/><text x="993.0" y="981.12" font-family="'Noto Sans CJK JP','Hiragino Sans','Yu Gothic','Noto Sans','Arial',sans-serif" font-size="5.28" font-weight="900" fill="#005293" text-anchor="middle">★</text><text x="1011.0" y="993.12" font-family="'Noto Sans CJK JP','Hiragino Sans','Yu Gothic','Noto Sans','Arial',sans-serif" font-size="5.28" font-weight="900" fill="#d21034" text-anchor="middle">★</text><rect x="984" y="972" width="36" height="24" fill="none" stroke="#111" stroke-width="0.8"/>
<text x="1030" y="991" font-family="'Noto Sans CJK JP','Hiragino Sans','Yu Gothic','Noto Sans','Arial',sans-serif" font-size="20" font-weight="750" fill="#111111" text-anchor="start">パナマ</text>
<text x="968" y="1035" font-family="'Noto Sans CJK JP','Hiragino Sans','Yu Gothic','Noto Sans','Arial',sans-serif" font-size="13" font-weight="900" fill="#15834d" text-anchor="start">勝者: コロンビア</text>
<rect x="1390" y="863" width="405" height="190" rx="10" fill="#f6f8ff" stroke="#111111" stroke-width="3"/>
<text x="1406" y="891" font-family="'Noto Sans CJK JP','Hiragino Sans','Yu Gothic','Noto Sans','Arial',sans-serif" font-size="18" font-weight="900" fill="#526077" text-anchor="start">M88</text>
<rect x="1408" y="911" width="369" height="42" rx="7" fill="#c9f5db" stroke="#15834d" stroke-width="2"/>
<rect x="1424" y="920" width="36" height="24" fill="#fff" stroke="#111" stroke-width="0.8"/><rect x="1424" y="920.0" width="36" height="3.6285714285714286" fill="#b22234" stroke="none" stroke-width="0"/><rect x="1424" y="923.4285714285714" width="36" height="3.6285714285714286" fill="#ffffff" stroke="none" stroke-width="0"/><rect x="1424" y="926.8571428571429" width="36" height="3.6285714285714286" fill="#b22234" stroke="none" stroke-width="0"/><rect x="1424" y="930.2857142857143" width="36" height="3.6285714285714286" fill="#ffffff" stroke="none" stroke-width="0"/><rect x="1424" y="933.7142857142857" width="36" height="3.6285714285714286" fill="#b22234" stroke="none" stroke-width="0"/><rect x="1424" y="937.1428571428571" width="36" height="3.6285714285714286" fill="#ffffff" stroke="none" stroke-width="0"/><rect x="1424" y="940.5714285714286" width="36" height="3.6285714285714286" fill="#b22234" stroke="none" stroke-width="0"/><rect x="1424" y="920" width="15.12" height="13.714285714285714" fill="#3c3b6e" stroke="none" stroke-width="0"/><rect x="1424" y="920" width="36" height="24" fill="none" stroke="#111" stroke-width="0.8"/>
<text x="1470" y="939" font-family="'Noto Sans CJK JP','Hiragino Sans','Yu Gothic','Noto Sans','Arial',sans-serif" font-size="20" font-weight="900" fill="#102818" text-anchor="start">アメリカ</text>
<text x="1771" y="939" font-family="'Noto Sans CJK JP','Hiragino Sans','Yu Gothic','Noto Sans','Arial',sans-serif" font-size="16" font-weight="900" fill="#102818" text-anchor="end">57.2%</text>
<rect x="1408" y="963" width="369" height="42" rx="7" fill="#f5f7fc" stroke="#111111" stroke-width="2"/>
<rect x="1424" y="972" width="36" height="24" fill="#fff" stroke="#111" stroke-width="0.8"/><rect x="1424" y="972.0" width="36" height="8.3" fill="#239f40" stroke="none" stroke-width="0"/><rect x="1424" y="980.0" width="36" height="8.3" fill="#ffffff" stroke="none" stroke-width="0"/><rect x="1424" y="988.0" width="36" height="8.3" fill="#da0000" stroke="none" stroke-width="0"/><rect x="1424" y="972" width="36" height="24" fill="none" stroke="#111" stroke-width="0.8"/>
<text x="1470" y="991" font-family="'Noto Sans CJK JP','Hiragino Sans','Yu Gothic','Noto Sans','Arial',sans-serif" font-size="20" font-weight="750" fill="#111111" text-anchor="start">イラン</text>
<text x="1408" y="1035" font-family="'Noto Sans CJK JP','Hiragino Sans','Yu Gothic','Noto Sans','Arial',sans-serif" font-size="13" font-weight="900" fill="#15834d" text-anchor="start">勝者: アメリカ</text>
</svg>